<svg width="338" height="409" viewBox="0 0 338 409" fill="none" xmlns="http://www.w3.org/2000/svg">
<path fill-rule="evenodd" clip-rule="evenodd" d="M180.852 32.0789V38.7368H178.112H175.98H152.841V49.6316H156.495V243.921H18.8768V253L21.3125 254.816H25.575V259.658L28.6196 262.079V265.105H18.8768V262.079H9.13393V265.105H1.82679L0 268.132V272.974L1.82651 275.395L1.82679 279.632V285.079H7.30714V299.605L17.6589 308.079H60.2839V306.263H143.098V315.947V319.579H107.78V330.474H105.345V333.5H138.227H143.098L144.925 337.737H157.104V409H169.282V337.737H225.304V409H238.7V337.737H255.141V335.316H289.85L291.677 333.5V330.474H289.85V320.789L276.454 315.947H251.487H244.789H238.7V299.605H283.152L285.587 301.421H326.995L328.821 299.605V289.921H335.52L337.955 287.5V256.632H335.52L328.821 251.184V231.211H330.648V214.263H328.821V178.553L325.168 176.737H298.984L295.33 179.763V214.263H294.112V215.474V231.211V233.632H295.939V245.132H291.677V242.105H284.37V245.132H237.482V49.6316H241.745V38.7368H214.952V32.0789L220.432 31.4737H224.086H228.348V27.2368V26.0263V23V19.9737H225.304H220.432V13.3158H232.002V9.07895V4.23684H227.13V0H207.645H202.773V3.63158V9.68421H193.03V3.63158V0H188.159H168.673V4.23684H164.411V8.47368V12.1053H169.282H175.371V16.9474H172.936V18.7632H169.282H165.02V23.6053V27.2368V31.4737H169.282H174.762L175.98 32.0789H178.112H180.852ZM225.304 243.921V49.6316H169.282V243.921H225.304ZM167.455 315.947V306.263V299.605H225.304V315.947H167.455ZM18.8768 285.079H295.33L291.677 293H21.3125L18.8768 285.079ZM295.939 254.816H36.4554L41.9554 260.5H291.677L295.939 254.816ZM234.455 343V404.5H230.455V343H234.455ZM164.455 404.5V343H161.455V404.5H164.455ZM298.984 214.263H325.168V231.211H298.984V214.263ZM330.648 262.5L323.455 256V285.079L330.648 280.5V262.5ZM233.955 143.5V225H229.455V143.5H233.955ZM165.02 225V143.5H160.455V225H165.02ZM165.02 54V131.5H160.455V54H165.02ZM233.455 131.5V54H228.955V131.5H233.455ZM183.955 38.7368H211.455V32.0789H183.955V38.7368ZM214.952 16.9474H183.955H180.852V23H214.952V16.9474Z" fill="#171717"/>
</svg>

